<?xml version="1.0" standalone="no"?><!DOCTYPE svg PUBLIC "-//W3C//DTD SVG 1.1//EN" "http://www.w3.org/Graphics/SVG/1.1/DTD/svg11.dtd"><svg t="1578972523032" class="icon" viewBox="0 0 1025 1024" version="1.1" xmlns="http://www.w3.org/2000/svg" p-id="5780" xmlns:xlink="http://www.w3.org/1999/xlink" width="48.046875" height="48"><defs><style type="text/css"></style></defs><path d="M1011.32288 134.49216c-110.75584-83.92704-281.1904-134.0416-455.90528-134.0416-216.12544 0-392.23296 75.44832-483.16416 207.01184-42.7008 61.78816-66.33472 134.9632-70.20544 217.47712-3.46112 73.48224 8.88832 154.7264 36.67968 242.15552 94.88384-284.38528 359.81312-507.10528 665.27232-507.10528 0 0-285.81888 75.22304-465.53088 308.18304-0.1024 0.14336-2.49856 3.09248-6.61504 8.704-36.08576 48.27136-67.54304 103.15776-91.07456 165.33504-39.87456 94.8224-76.77952 224.95232-76.77952 381.78816l128 0c0 0-19.43552-122.22464 14.35648-262.79936 55.88992 7.55712 105.86112 11.30496 150.85568 11.30496 117.67808 0 201.37984-25.45664 263.39328-80.11776 55.56224-48.98816 86.20032-114.7904 118.62016-184.46336 49.52064-106.41408 105.65632-227.00032 268.65664-320.14336 9.33888-5.3248 15.36-14.99136 16.05632-25.72288s-4.03456-21.07392-12.61568-27.56608z" p-id="5781" fill=""></path></svg>