<?xml version="1.0" standalone="no"?><!DOCTYPE svg PUBLIC "-//W3C//DTD SVG 1.1//EN" "http://www.w3.org/Graphics/SVG/1.1/DTD/svg11.dtd"><svg t="1578987854466" class="icon" viewBox="0 0 1024 1024" version="1.1" xmlns="http://www.w3.org/2000/svg" p-id="10225" xmlns:xlink="http://www.w3.org/1999/xlink" width="48" height="48"><defs><style type="text/css"></style></defs><path d="M13.568 734.464c-0.128-3.456-0.128-6.912-0.128-10.24 0-58.624 13.184-115.584 39.168-169.088 25.088-51.712 61.056-98.176 106.88-138.112 94.208-82.048 219.392-127.36 352.512-127.36s258.432 45.184 352.512 127.36c45.824 39.936 81.664 86.4 106.88 138.112 25.984 53.504 39.168 110.464 39.168 169.088 0 3.328 0 6.784-0.128 10.24H13.568z" fill="" p-id="10226"></path><path d="M512 290.304c67.2 0 132.48 11.52 193.92 34.176 59.264 21.888 112.512 53.12 158.336 93.056 45.696 39.808 81.664 86.272 106.624 137.984 25.856 53.248 39.04 110.08 39.04 168.704 0 3.2 0 6.4-0.128 9.6H14.208c-0.128-3.2-0.128-6.4-0.128-9.6 0-58.496 13.184-115.328 39.04-168.832 25.088-51.712 60.928-98.048 106.624-137.984 45.696-39.808 98.944-71.168 158.336-93.056 61.44-22.656 126.72-34.048 193.92-34.048m0-1.28c-275.712 0-499.2 194.816-499.2 435.2 0 3.584 0 7.296 0.128 10.88h998.144c0.128-3.584 0.128-7.296 0.128-10.88 0-240.384-223.488-435.2-499.2-435.2z" fill="" p-id="10227"></path><path d="M495.36 433.792L330.752 598.528c-9.088 9.088-9.088 23.808 0 32.896 9.088 9.088 23.808 9.088 32.896 0l148.096-148.224 148.096 148.224c9.088 9.088 23.808 9.088 32.896 0 9.088-9.088 9.088-23.808 0-32.896L528.256 433.792c-9.088-9.088-23.808-9.088-32.896 0z m0 0" fill="#FFFFFF" p-id="10228"></path></svg>