<?xml version="1.0" standalone="no"?><!DOCTYPE svg PUBLIC "-//W3C//DTD SVG 1.1//EN" "http://www.w3.org/Graphics/SVG/1.1/DTD/svg11.dtd"><svg t="1567128276797" class="icon" viewBox="0 0 1024 1024" version="1.1" xmlns="http://www.w3.org/2000/svg" p-id="1848" xmlns:xlink="http://www.w3.org/1999/xlink" width="64" height="64"><defs><style type="text/css"></style></defs><path d="M128.141125 383.858875C57.578831 383.858875 0 441.437707 0 512c0 70.562293 57.578831 128.141125 128.141125 128.141125 70.562293 0 128.141125-57.578831 128.141125-128.141125C256.282249 441.437707 198.703418 383.858875 128.141125 383.858875zM512 383.858875C441.437707 383.858875 383.858875 441.437707 383.858875 512c0 70.562293 57.578831 128.141125 128.141125 128.141125 70.562293 0 128.141125-57.578831 128.141125-128.141125C640.141125 441.437707 582.562293 383.858875 512 383.858875zM895.858875 383.858875c-70.562293 0-128.141125 57.578831-128.141125 128.141125 0 70.562293 57.578831 128.141125 128.141125 128.141125 70.562293 0 128.141125-57.578831 128.141125-128.141125C1024 441.437707 966.985667 383.858875 895.858875 383.858875z" p-id="1849"></path></svg>