<?xml version="1.0" standalone="no"?><!DOCTYPE svg PUBLIC "-//W3C//DTD SVG 1.1//EN" "http://www.w3.org/Graphics/SVG/1.1/DTD/svg11.dtd"><svg t="1578972682476" class="icon" viewBox="0 0 1128 1024" version="1.1" xmlns="http://www.w3.org/2000/svg" p-id="1534" xmlns:xlink="http://www.w3.org/1999/xlink" width="52.875" height="48"><defs><style type="text/css"></style></defs><path d="M27.33568 604.672l70.02112-70.0416 0 25.37472c0 242.85184 221.14304 463.99488 463.99488 463.99488s463.99488-221.14304 463.99488-463.99488l0-24.69888 70.69696 70.69696c3.13344 3.13344 7.22944 4.66944 11.32544 4.66944s8.192-1.57696 11.32544-4.66944c6.2464-6.2464 6.2464-16.384 0-22.6304l-96.58368-96.58368c-2.94912-3.9936-7.41376-6.77888-12.75904-6.77888-1.4336 0-2.68288 0.45056-4.03456 0.79872-2.94912 0.6144-5.79584 1.72032-7.96672 3.87072l-97.34144 97.34144c-6.2464 6.2464-6.2464 16.384 0 22.6304s16.384 6.2464 22.6304 0l70.71744-70.69696 0 26.05056c0 220.73344-196.32128 421.66272-416.01024 431.104l0-607.10912 271.99488 0c8.82688 0 15.99488-7.168 15.99488-15.99488s-7.168-15.99488-15.99488-15.99488l-271.99488 0 0-129.6384c54.14912-7.84384 96.01024-54.10816 96.01024-110.36672 0-61.76768-50.23744-112.00512-112.00512-112.00512s-112.00512 50.23744-112.00512 112.00512c0 56.25856 41.86112 102.52288 96.01024 110.36672l0 129.6384-271.99488 0c-8.82688 0-15.99488 7.168-15.99488 15.99488s7.168 15.99488 15.99488 15.99488l271.99488 0 0 607.10912c-219.68896-9.44128-416.01024-210.37056-416.01024-431.104l0-25.37472 71.35232 71.35232c3.13344 3.13344 7.22944 4.66944 11.32544 4.66944s8.192-1.57696 11.32544-4.66944c6.2464-6.2464 6.2464-16.384 0-22.6304l-98.65216-98.63168c-2.90816-2.94912-6.94272-4.73088-11.3664-4.73088s-8.43776 1.78176-11.32544 4.7104l-97.32096 97.32096c-6.2464 6.2464-6.2464 16.384 0 22.6304s16.384 6.26688 22.6304 0.04096zM561.35168 32.01024c44.09344 0 79.99488 35.88096 79.99488 79.99488s-35.90144 79.99488-79.99488 79.99488-79.99488-35.88096-79.99488-79.99488 35.90144-79.99488 79.99488-79.99488z" p-id="1535" fill="#00957d"></path></svg>